<svg xmlns="http://www.w3.org/2000/svg" viewBox="0 0 100 100">
  <defs>
    <radialGradient id="explosionGradient" cx="50%" cy="50%" r="50%">
      <stop offset="0%" style="stop-color:#FFD700;stop-opacity:1" />
      <stop offset="30%" style="stop-color:#FFA500;stop-opacity:1" />
      <stop offset="60%" style="stop-color:#FF4500;stop-opacity:1" />
      <stop offset="100%" style="stop-color:#DC143C;stop-opacity:1" />
    </radialGradient>
    <radialGradient id="centerGradient" cx="50%" cy="50%" r="30%">
      <stop offset="0%" style="stop-color:#FFFFFF;stop-opacity:1" />
      <stop offset="50%" style="stop-color:#FFD700;stop-opacity:1" />
      <stop offset="100%" style="stop-color:#FFA500;stop-opacity:1" />
    </radialGradient>
  </defs>
  
  <!-- Background circle -->
  <circle cx="50" cy="50" r="48" fill="url(#explosionGradient)" stroke="#8B0000" stroke-width="2"/>
  
  <!-- Explosion rays -->
  <g stroke="url(#explosionGradient)" stroke-width="3" stroke-linecap="round">
    <!-- Top rays -->
    <line x1="50" y1="10" x2="50" y2="25"/>
    <line x1="35" y1="15" x2="42" y2="28"/>
    <line x1="65" y1="15" x2="58" y2="28"/>
    
    <!-- Bottom rays -->
    <line x1="50" y1="75" x2="50" y2="90"/>
    <line x1="35" y1="85" x2="42" y2="72"/>
    <line x1="65" y1="85" x2="58" y2="72"/>
    
    <!-- Left rays -->
    <line x1="10" y1="50" x2="25" y2="50"/>
    <line x1="15" y1="35" x2="28" y2="42"/>
    <line x1="15" y1="65" x2="28" y2="58"/>
    
    <!-- Right rays -->
    <line x1="90" y1="50" x2="75" y2="50"/>
    <line x1="85" y1="35" x2="72" y2="42"/>
    <line x1="85" y1="65" x2="72" y2="58"/>
    
    <!-- Diagonal rays -->
    <line x1="20" y1="20" x2="30" y2="30"/>
    <line x1="80" y1="20" x2="70" y2="30"/>
    <line x1="20" y1="80" x2="30" y2="70"/>
    <line x1="80" y1="80" x2="70" y2="70"/>
  </g>
  
  <!-- Center burst -->
  <circle cx="50" cy="50" r="15" fill="url(#centerGradient)" opacity="0.9"/>
  
  <!-- Inner highlight -->
  <circle cx="50" cy="50" r="8" fill="#FFFFFF" opacity="0.8"/>
</svg>
